<svg width="360" height="360" viewBox="0 0 360 360" fill="none" xmlns="http://www.w3.org/2000/svg">
<g clip-path="url(#clip0_1928_12776)">
<path d="M263.065 242.022C265.812 242.411 275.4 242.23 280.365 224.041C285.33 205.853 307.093 213.002 307.093 213.002" stroke="#2E186A" stroke-width="1.57703" stroke-linecap="round" stroke-linejoin="round"/>
<path d="M307.577 217.39C310.101 217.39 312.147 215.343 312.147 212.819C312.147 210.294 310.101 208.248 307.577 208.248C305.052 208.248 303.006 210.294 303.006 212.819C303.006 215.343 305.052 217.39 307.577 217.39Z" fill="#FEBA91"/>
<path d="M260.458 177.943C268.08 179.207 286.479 172.011 282.131 154.716C277.784 137.421 294.729 132.771 294.729 132.771" stroke="#2E186A" stroke-width="1.57703" stroke-linecap="round" stroke-linejoin="round"/>
<path d="M306.415 135.691L310.639 130.303ZM301.592 131.018L305.816 125.63ZM295.56 126.139L299.786 120.754ZM288.894 121.976L293.121 116.588Z" fill="white"/>
<path d="M306.415 135.691L310.639 130.303M301.592 131.018L305.816 125.63M295.56 126.139L299.786 120.754M288.894 121.976L293.121 116.588" stroke="#2E186A" stroke-width="1.57703" stroke-linecap="round" stroke-linejoin="round"/>
<path d="M307.9 135.148L305.08 139.093C304.78 139.511 304.327 139.794 303.82 139.878C303.312 139.962 302.792 139.842 302.373 139.542L285.986 127.823C285.568 127.524 285.285 127.071 285.201 126.563C285.117 126.056 285.237 125.535 285.537 125.117L288.357 121.173L307.9 135.148Z" fill="#FEBA91"/>
<path d="M316.421 165.915L325.292 160.148M243.365 236.256C250.662 235.602 264.345 235.223 269.42 216.48C274.496 197.737 280.765 185.723 298.285 177.73" stroke="#2E186A" stroke-width="1.57703" stroke-linecap="round" stroke-linejoin="round"/>
<path d="M302.477 179.801L318.266 169.536C319.255 168.893 319.536 167.569 318.892 166.58L316.517 162.926C315.874 161.937 314.55 161.656 313.561 162.299L297.772 172.564C296.782 173.208 296.502 174.531 297.145 175.521L299.521 179.174C300.164 180.164 301.487 180.444 302.477 179.801Z" fill="#49BEFF"/>
<path d="M27.0015 214.25C40.8478 215.301 42.8559 220.742 46.4778 226.23C50.0998 231.718 55.3539 236.712 65.213 230.78C71.9469 226.724 75.8948 226.54 78.5889 227.839" stroke="#2E186A" stroke-width="1.57703" stroke-linecap="round" stroke-linejoin="round"/>
<path d="M24.0288 219.362C26.5531 219.362 28.5995 217.316 28.5995 214.791C28.5995 212.267 26.5531 210.221 24.0288 210.221C21.5044 210.221 19.458 212.267 19.458 214.791C19.458 217.316 21.5044 219.362 24.0288 219.362Z" fill="#49BEFF"/>
<path d="M46.0537 128.451L31.7097 126.979C30.2657 126.831 28.9749 127.882 28.8267 129.326L26.9008 148.091C26.7526 149.535 27.803 150.826 29.2471 150.974L43.5911 152.446C45.0351 152.594 46.3259 151.544 46.4741 150.1L48.4 131.334C48.5483 129.89 47.4978 128.6 46.0537 128.451Z" fill="#FEBA91"/>
<path d="M35.9432 133.183L23.1062 131.664M35.1836 139.602L22.3466 138.08M34.4214 146.02L21.5844 144.498M77.4166 165.817C69.7654 154.061 63.0262 140.177 47.29 140.653" stroke="#2E186A" stroke-width="1.57703" stroke-linecap="round" stroke-linejoin="round"/>
<path d="M41.4286 127.816L38.5795 151.806" stroke="#2E186A" stroke-width="1.57703" stroke-linejoin="round"/>
<path d="M18.4198 189.183C18.8945 188.795 19.2742 188.303 19.5298 187.746C19.7854 187.188 19.9101 186.58 19.8943 185.967C19.8786 185.354 19.7229 184.752 19.4391 184.209C19.1553 183.665 18.7509 183.193 18.2568 182.83" stroke="#2E186A" stroke-width="1.57703" stroke-linecap="round" stroke-linejoin="round"/>
<path d="M32.262 179.65L17.053 181.745C14.9319 182.037 13.4492 183.993 13.7412 186.114L13.861 186.984C14.1531 189.105 16.1093 190.588 18.2305 190.296L33.4394 188.201C35.5605 187.909 37.0432 185.953 36.7512 183.832L36.6314 182.962C36.3394 180.841 34.3831 179.358 32.262 179.65Z" fill="#FEBA91"/>
<path d="M16.4905 186.211L6.01111 187.654M78.7492 190.587C65.0973 182.226 53.3563 178.867 36.9919 183.672" stroke="#2E186A" stroke-width="1.57703" stroke-linecap="round" stroke-linejoin="round"/>
<path d="M262.077 89.5234L194.422 89.555L200.236 93.8944L199.894 269.568L215.665 269.489V260.216C215.664 259.639 215.777 259.067 215.997 258.534C216.218 258 216.541 257.515 216.949 257.106C217.357 256.698 217.841 256.374 218.374 256.152C218.908 255.931 219.479 255.817 220.057 255.816H249.991C250.568 255.817 251.14 255.931 251.673 256.153C252.206 256.374 252.69 256.699 253.097 257.107C253.505 257.516 253.828 258.001 254.048 258.534C254.268 259.068 254.381 259.639 254.381 260.216V269.679H268.5V95.984C268.503 95.138 268.339 94.2998 268.017 93.5173C267.696 92.7348 267.223 92.0232 266.627 91.4233C266.03 90.8234 265.321 90.3468 264.541 90.0209C263.76 89.6949 262.923 89.5259 262.077 89.5234Z" fill="#5D87FF"/>
<path d="M190.524 269.568V259.72C190.524 259.144 190.41 258.573 190.189 258.042C189.968 257.51 189.645 257.026 189.237 256.619C188.829 256.213 188.346 255.89 187.813 255.67C187.281 255.45 186.711 255.337 186.135 255.338H100.783C100.207 255.337 99.6364 255.45 99.1041 255.67C98.5718 255.89 98.088 256.213 97.6803 256.619C97.2727 257.026 96.9492 257.51 96.7284 258.042C96.5076 258.573 96.3938 259.144 96.3934 259.72V269.518H77.5794L77.5663 96.2417C77.567 95.4722 77.7193 94.7105 78.0146 93.9999C78.3098 93.2893 78.7422 92.6439 79.2871 92.1005C79.8319 91.5572 80.4785 91.1265 81.1898 90.8332C81.9012 90.5398 82.6634 90.3895 83.4329 90.3909L194.088 90.3594C194.933 90.3587 195.769 90.5245 196.55 90.8473C197.33 91.1701 198.039 91.6436 198.637 92.2407C199.234 92.8378 199.708 93.5468 200.031 94.3271C200.354 95.1074 200.52 95.9438 200.52 96.7884V269.687L190.524 269.568Z" fill="white" stroke="#2E186A" stroke-width="1.57703" stroke-linecap="round" stroke-linejoin="round"/>
<path d="M183.477 102.746H96.0387C91.5997 102.746 88.0011 106.345 88.0011 110.784V237.706C88.0011 242.145 91.5997 245.744 96.0387 245.744H183.477C187.916 245.744 191.515 242.145 191.515 237.706V110.784C191.515 106.345 187.916 102.746 183.477 102.746Z" fill="#2E186A"/>
<path d="M200.112 164.953H268.495V184.219H200.112V164.953Z" fill="#2E186A"/>
<path d="M239.104 176.362C240.086 176.362 240.881 175.567 240.881 174.585C240.881 173.604 240.086 172.809 239.104 172.809C238.123 172.809 237.328 173.604 237.328 174.585C237.328 175.567 238.123 176.362 239.104 176.362Z" fill="white"/>
<path d="M229.674 176.362C230.655 176.362 231.451 175.567 231.451 174.585C231.451 173.604 230.655 172.809 229.674 172.809C228.692 172.809 227.897 173.604 227.897 174.585C227.897 175.567 228.692 176.362 229.674 176.362Z" fill="white"/>
<path d="M259.793 172.311H249.1C248.549 172.311 248.102 172.758 248.102 173.309V175.864C248.102 176.416 248.549 176.863 249.1 176.863H259.793C260.344 176.863 260.791 176.416 260.791 175.864V173.309C260.791 172.758 260.344 172.311 259.793 172.311Z" fill="#5D87FF"/>
<path d="M219.539 172.311H208.846C208.295 172.311 207.848 172.758 207.848 173.309V175.864C207.848 176.416 208.295 176.863 208.846 176.863H219.539C220.09 176.863 220.538 176.416 220.538 175.864V173.309C220.538 172.758 220.09 172.311 219.539 172.311Z" fill="#5D87FF"/>
<path d="M200.578 101.541H268.408V118.678H200.578V101.541Z" fill="#2E186A"/>
<path d="M200.73 192.354H268.466V221.108H200.73V192.354Z" fill="#2E186A"/>
<path d="M201.282 128.891H268.408M201.282 141.841H268.408M201.282 154.791H268.408" stroke="white" stroke-width="1.57703" stroke-linejoin="round"/>
<path d="M185.785 102.748H144.919C130.089 101.51 85.9693 105.339 83.6458 116.896C81.3223 128.453 105.987 133.25 105.987 133.25C95.8362 159.129 104.823 168.996 114.924 174.881C118.341 180.987 123.274 185.597 129.193 187.76L129.125 187.928C126.015 190.649 123.56 196.36 125.445 200.842C122.087 199.56 118.465 199.125 114.899 199.574C111.332 200.023 107.932 201.343 104.996 203.418L88.1613 197.399C87.5024 197.32 86.8343 197.407 86.2171 197.651C85.5999 197.894 85.0528 198.288 84.625 198.795C84.1972 199.302 83.9021 199.908 83.766 200.557C83.63 201.207 83.6573 201.88 83.8455 202.516C86.3872 211.058 91.2786 216.349 95.5051 219.501C95.2946 220.878 95.1752 222.268 95.1476 223.661C95.1318 224.468 95.1266 225.252 95.1292 226.027C90.7565 228.744 86.8365 232.129 83.5117 236.06C81.9347 237.899 82.505 240.478 84.019 242.176C87.5542 246.118 95.5839 249.12 104.647 246.523H185.785C186.555 246.523 187.317 246.371 188.028 246.076C188.739 245.781 189.385 245.349 189.929 244.804C190.472 244.259 190.903 243.612 191.197 242.901C191.49 242.189 191.64 241.426 191.638 240.657V109.421C191.638 106.188 189.018 102.748 185.785 102.748Z" fill="#49BEFF"/>
<path d="M173.108 228.378C151.632 225.895 156.878 207.141 156.039 201.716C155.209 196.333 140.795 193.445 140.056 203.383C139.557 210.064 136.043 231.703 152.381 238.382" stroke="#2E186A" stroke-width="1.57703" stroke-linecap="round" stroke-linejoin="round"/>
<path d="M145.287 197.439C144.627 200.88 143.184 209.753 145 213.473M150.79 197.534C150.168 200.725 148.751 209.262 150.588 212.873" stroke="#2E186A" stroke-width="1.57703" stroke-linecap="round" stroke-linejoin="round"/>
<path d="M150.817 197.068C143.005 190.284 132.681 185.211 127.104 188.744M123.855 199.289C125.621 203.965 128.978 205.397 132.999 206.386C135.706 207.053 137.667 207.679 139.491 208.538M139.949 204.06L134.553 201.778M142.835 198.13L138.274 195.622" stroke="#2E186A" stroke-width="1.57703" stroke-linecap="round" stroke-linejoin="round"/>
<path d="M83.6116 237.766C83.6116 237.766 91.5914 245.125 102.707 238.791" stroke="#2E186A" stroke-width="1.57703" stroke-linecap="round" stroke-linejoin="round"/>
<path d="M85.985 199.498C85.985 199.498 87.5436 208.637 97.8127 212.056" stroke="#2E186A" stroke-width="1.57703" stroke-linecap="round" stroke-linejoin="round"/>
<path d="M186.923 181.065C176.788 179.152 167.165 172.318 165.081 148.286C164.963 148.184 144.075 164.122 134.237 148.888C127.952 137.271 152.184 122.809 163.814 114.953" stroke="#2E186A" stroke-width="1.57703" stroke-linecap="round" stroke-linejoin="round"/>
<path d="M141.962 103.434C137.494 105.783 133.025 109.298 128.649 113.322C108.148 132.214 106.526 159.492 114.456 175.52" stroke="#2E186A" stroke-width="1.57703" stroke-linecap="round" stroke-linejoin="round"/>
<path d="M142.377 142.025C143.569 142.025 144.535 141.059 144.535 139.867C144.535 138.675 143.569 137.709 142.377 137.709C141.185 137.709 140.219 138.675 140.219 139.867C140.219 141.059 141.185 142.025 142.377 142.025Z" fill="#2E186A"/>
<path d="M144.824 148.773C146.016 148.773 146.982 147.807 146.982 146.615C146.982 145.423 146.016 144.457 144.824 144.457C143.632 144.457 142.666 145.423 142.666 146.615C142.666 147.807 143.632 148.773 144.824 148.773Z" fill="#2E186A"/>
<path d="M152.554 150.841C153.746 150.841 154.712 149.875 154.712 148.683C154.712 147.492 153.746 146.525 152.554 146.525C151.363 146.525 150.396 147.492 150.396 148.683C150.396 149.875 151.363 150.841 152.554 150.841Z" fill="#2E186A"/>
<path d="M151.177 144.854C154.028 144.854 156.339 142.542 156.339 139.691C156.339 136.84 154.028 134.529 151.177 134.529C148.326 134.529 146.015 136.84 146.015 139.691C146.015 142.542 148.326 144.854 151.177 144.854Z" fill="#2E186A"/>
<path d="M94.827 118.984C96.0188 118.984 96.9849 118.018 96.9849 116.826C96.9849 115.634 96.0188 114.668 94.827 114.668C93.6352 114.668 92.6691 115.634 92.6691 116.826C92.6691 118.018 93.6352 118.984 94.827 118.984Z" fill="#2E186A"/>
<path d="M97.3607 113.306C97.9415 113.325 98.5204 113.23 99.0643 113.025C99.6082 112.821 100.107 112.511 100.531 112.114C100.955 111.717 101.297 111.24 101.537 110.711C101.777 110.182 101.91 109.61 101.929 109.029C101.934 108.241 101.761 107.461 101.424 106.748C98.4226 107.169 95.6759 108.278 93.1579 109.143C93.1159 111.553 94.94 113.224 97.3607 113.306ZM86.3793 113.143C86.3651 113.556 86.4701 113.965 86.6817 114.321C86.8933 114.676 87.2026 114.963 87.5728 115.148C87.943 115.333 88.3585 115.407 88.7697 115.362C89.181 115.317 89.5707 115.155 89.8925 114.895C90.2142 114.635 90.4544 114.288 90.5845 113.895C90.7145 113.503 90.7289 113.081 90.626 112.68C90.5231 112.279 90.3072 111.917 90.0039 111.635C89.7007 111.354 89.323 111.166 88.9157 111.093C88.0225 111.596 87.1824 112.187 86.4082 112.859C86.3918 112.953 86.3822 113.048 86.3793 113.143Z" fill="#2E186A"/>
<path d="M107.737 216.46C109.506 216.174 110.793 215.033 110.612 213.912C110.431 212.791 108.85 212.114 107.081 212.4C105.312 212.686 104.025 213.827 104.206 214.948C104.387 216.069 105.968 216.745 107.737 216.46Z" fill="#2E186A"/>
<path d="M111.662 231.458C113.427 231.177 114.713 230.043 114.535 228.925C114.357 227.807 112.782 227.128 111.017 227.409C109.253 227.69 107.967 228.824 108.145 229.943C108.323 231.061 109.898 231.739 111.662 231.458Z" fill="#2E186A"/>
<path d="M115.441 213.708L119.329 216.157C119.461 216.241 119.575 216.35 119.664 216.478C119.753 216.607 119.816 216.752 119.848 216.905C119.88 217.058 119.88 217.216 119.85 217.369C119.819 217.523 119.758 217.668 119.67 217.798L117.331 221.246C117.206 221.431 117.03 221.576 116.824 221.663C116.618 221.751 116.392 221.778 116.171 221.74C115.951 221.702 115.746 221.602 115.581 221.451C115.416 221.3 115.298 221.105 115.242 220.888L113.691 214.99C113.63 214.764 113.64 214.524 113.717 214.303C113.795 214.082 113.938 213.889 114.128 213.751C114.317 213.612 114.543 213.534 114.778 213.526C115.012 213.518 115.244 213.582 115.441 213.708Z" fill="#2E186A"/>
<path d="M123.382 219.793C128.376 216.361 122.33 216.213 119.1 216.639C121.923 215.588 126.055 212.655 121.621 211.984" stroke="#2E186A" stroke-width="1.57703" stroke-linecap="round" stroke-linejoin="round"/>
<path d="M111.985 180.421C109.018 186.971 108.269 197.137 115.373 208.545M123.009 179.756C118.611 185.638 115.846 195.455 120.275 207.948" stroke="white" stroke-width="1.57703" stroke-linecap="round" stroke-linejoin="round"/>
<path d="M128.922 256.978C124.586 253.133 118.913 241.734 120.548 229.906M139.252 253.091C134.192 250.268 126.207 240.364 125.261 228.463" stroke="#2E186A" stroke-width="1.57703" stroke-linecap="round" stroke-linejoin="round"/>
<path d="M359.211 269.643H0.788452" stroke="#2E186A" stroke-width="1.57703" stroke-linecap="round" stroke-linejoin="round"/>
</g>
<defs>
<clipPath id="clip0_1928_12776">
<rect width="360" height="360" fill="white"/>
</clipPath>
</defs>
</svg>
