<?xml version="1.0" encoding="UTF-8" standalone="no"?>
<!-- Created with Inkscape (http://www.inkscape.org/) -->

<svg
   width="22.752195mm"
   height="22.775484mm"
   viewBox="0 0 22.752195 22.775484"
   version="1.1"
   id="svg1"
   xml:space="preserve"
   inkscape:export-filename="fossicon.png"
   inkscape:export-xdpi="96"
   inkscape:export-ydpi="96"
   inkscape:version="1.3 (1:1.3+202307231459+0e150ed6c4)"
   sodipodi:docname="fossbit.svg"
   xmlns:inkscape="http://www.inkscape.org/namespaces/inkscape"
   xmlns:sodipodi="http://sodipodi.sourceforge.net/DTD/sodipodi-0.dtd"
   xmlns="http://www.w3.org/2000/svg"
   xmlns:svg="http://www.w3.org/2000/svg"><sodipodi:namedview
     id="namedview1"
     pagecolor="#ffffff"
     bordercolor="#000000"
     borderopacity="0.25"
     inkscape:showpageshadow="2"
     inkscape:pageopacity="0.0"
     inkscape:pagecheckerboard="0"
     inkscape:deskcolor="#d1d1d1"
     inkscape:document-units="mm"
     inkscape:zoom="1.0280428"
     inkscape:cx="402.22062"
     inkscape:cy="524.29725"
     inkscape:window-width="1848"
     inkscape:window-height="1016"
     inkscape:window-x="72"
     inkscape:window-y="27"
     inkscape:window-maximized="1"
     inkscape:current-layer="g8" /><defs
     id="defs1" /><g
     inkscape:label="Layer 1"
     inkscape:groupmode="layer"
     id="layer1"
     transform="translate(-170.16149,-148.85792)"><g
       id="g8"
       inkscape:label="blue"><path
         style="fill:#fdfdfd"
         d="m 192.91368,148.85792 -0.0113,3.4925 c -0.008,2.47 -0.0324,3.29093 -0.0836,2.80402 -0.0398,-0.37867 -0.12054,-0.83587 -0.17948,-1.016 l -0.10716,-0.32752 -1.05437,-0.0239 c -0.88999,-0.0202 -1.07669,-0.0479 -1.19759,-0.17765 -0.21689,-0.2328 -1.29887,-0.26285 -9.75323,-0.27084 -5.74646,-0.005 -7.54727,0.0169 -7.64117,0.0949 -0.10052,0.0834 -0.12641,0.49632 -0.14246,2.27175 l -0.0196,2.1698 -0.0242,-2.0955 -0.0242,-2.0955 h -1.01884 -1.01884 l -0.12262,0.29347 c -0.42126,1.00821 -0.48223,5.23836 -0.0948,6.57805 l 0.10627,0.36748 1.0759,0.0237 1.07591,0.0237 0.003,1.20397 c 0.003,1.35706 0.12922,2.20061 0.45767,3.06664 0.78709,2.07539 2.81691,3.59697 4.80093,3.59884 0.29596,2.8e-4 0.84291,0.0242 1.21545,0.0531 l 0.67733,0.0526 -0.0282,0.48692 c -0.0319,0.55102 0.14217,0.9849 0.54957,1.37006 0.31782,0.30045 0.62355,0.40785 1.15627,0.40616 0.55769,-0.002 1.02054,-0.25479 1.36647,-0.74699 0.22521,-0.32044 0.25723,-0.43747 0.25752,-0.94125 l 3.3e-4,-0.57532 1.35467,-0.0435 c 1.0915,-0.0351 1.46157,-0.0797 1.905,-0.22977 0.8694,-0.29425 1.42948,-0.6552 2.16831,-1.39739 1.223,-1.22855 1.72635,-2.57523 1.72635,-4.61868 0,-0.63867 0.0218,-1.27075 0.0485,-1.40463 l 0.0485,-0.24341 0.97368,0.0264 c 0.64063,0.0174 1.01342,-0.007 1.08984,-0.07 0.13198,-0.10954 0.26305,-0.6799 0.36937,-1.60739 0.0462,-0.40291 0.0768,1.72465 0.0838,5.82083 l 0.011,6.45583 z m -11.85327,4.1926 c 0,-0.25757 -0.19033,-0.3176 -0.89253,-0.28153 -0.47997,0.0247 -0.50577,0.0372 -0.53126,0.25875 l -0.0268,0.23284 h 0.72529 c 0.71571,0 0.72529,-0.003 0.72529,-0.21006 z m 2.54,0.008 c 0,-0.23254 -0.17894,-0.3039 -0.762,-0.3039 -0.58307,0 -0.762,0.0714 -0.762,0.3039 0,0.19766 0.0156,0.20179 0.762,0.20179 0.74641,0 0.762,-0.004 0.762,-0.20179 z m -2.60184,17.51759 c -0.4987,-0.2168 -0.78158,-1.0146 -0.52785,-1.4887 0.0784,-0.14652 0.18474,-0.16377 1.00943,-0.16377 h 0.92179 l 0.0979,0.29663 c 0.17967,0.54442 -0.10093,1.13664 -0.6466,1.36463 -0.34576,0.14447 -0.50592,0.14282 -0.85467,-0.009 z m -0.9965,-2.36643 c -2.86782,-0.65975 -5.0148,-2.85401 -5.5926,-5.71576 -0.17179,-0.85082 -0.12935,-2.37357 0.0886,-3.17995 0.21435,-0.79296 0.9137,-2.14449 1.43429,-2.77181 0.97497,-1.17486 2.36224,-2.06388 3.8157,-2.44525 0.94729,-0.24856 2.52314,-0.24868 3.47134,-2.8e-4 0.91687,0.2402 2.24792,0.91315 2.94032,1.48658 2.68619,2.22465 3.37124,6.19502 1.58788,9.20297 -0.95259,1.60671 -2.57286,2.84897 -4.35887,3.34197 -0.69195,0.191 -2.70063,0.23936 -3.38667,0.0815 z"
         id="path8"
         sodipodi:nodetypes="cssscssccscccccssccccssccsscssccsssscscssccssscsssssssscsscssccsssssssssss" /><path
         style="fill:#9fa9cc"
         d="m 180.54247,168.89964 c 0.0368,-0.0366 0.46371,-0.0555 0.94862,-0.0419 l 0.88165,0.0248 -0.94861,0.0419 c -0.52174,0.023 -0.91849,0.0119 -0.88166,-0.0248 z m -1.36438,-0.0371 c 0.15218,-0.0188 0.38078,-0.0185 0.508,8.6e-4 0.12722,0.0193 0.003,0.0347 -0.27668,0.0343 -0.2794,-4.7e-4 -0.3835,-0.0163 -0.23132,-0.0351 z m 2.03048,-0.50788 c 0.15135,-0.0188 0.399,-0.0188 0.55034,0 0.15134,0.0188 0.0275,0.0341 -0.27517,0.0341 -0.30268,0 -0.42651,-0.0154 -0.27517,-0.0341 z m -8.52348,-4.98347 c 0.004,-0.0986 0.0241,-0.1187 0.0512,-0.0512 0.0245,0.0611 0.0214,0.13414 -0.007,0.16227 -0.0281,0.0281 -0.0481,-0.0219 -0.0445,-0.11112 z m -0.05,-2.43128 c -0.0322,-0.38646 -0.0224,-1.25323 0.0219,-1.92616 l 0.0804,-1.22351 0.0129,1.92617 c 0.007,1.05939 -0.003,1.92617 -0.0219,1.92617 -0.0191,0 -0.0611,-0.3162 -0.0933,-0.70267 z m 17.67762,-2.72633 c -0.001,-1.72297 0.0248,-3.39937 0.0582,-3.72534 0.0353,-0.3438 0.0629,0.66945 0.0657,2.413 0.003,1.65312 -0.0235,3.32952 -0.0582,3.72534 -0.04,0.45537 -0.0641,-0.4308 -0.0658,-2.413 z m -16.10361,2.87161 c 0.004,-0.0986 0.0241,-0.1187 0.0512,-0.0511 0.0245,0.0611 0.0214,0.13414 -0.007,0.16227 -0.0281,0.0281 -0.0481,-0.0219 -0.0445,-0.11112 z m 16.73947,-0.0981 c 0.29286,-0.0166 0.75006,-0.0164 1.016,3e-4 0.26593,0.0168 0.0263,0.0303 -0.53249,0.0301 -0.5588,-1.7e-4 -0.77638,-0.0139 -0.48351,-0.0305 z m 1.89702,-2.43485 c 0.002,-0.1397 0.0207,-0.1866 0.0422,-0.10422 0.0215,0.0824 0.02,0.19668 -0.003,0.254 -0.0232,0.0573 -0.0408,-0.0101 -0.039,-0.14978 z m -22.68411,-0.21166 c 0,-0.20955 0.0165,-0.29528 0.0367,-0.1905 0.0202,0.10477 0.0202,0.27622 0,0.381 -0.0202,0.10477 -0.0367,0.019 -0.0367,-0.1905 z m 0,-1.69334 c 0,-0.20955 0.0165,-0.29527 0.0367,-0.1905 0.0202,0.10478 0.0202,0.27623 0,0.381 -0.0202,0.10478 -0.0367,0.0191 -0.0367,-0.1905 z m 22.68097,-0.67735 c 0,-0.11642 0.0192,-0.16404 0.0427,-0.10583 0.0235,0.0582 0.0235,0.15346 0,0.21166 -0.0235,0.0582 -0.0427,0.0106 -0.0427,-0.10583 z m -0.0914,-0.98072 c 0.004,-0.0986 0.0241,-0.1187 0.0512,-0.0512 0.0245,0.0611 0.0214,0.13414 -0.007,0.16227 -0.0281,0.0281 -0.0481,-0.0219 -0.0445,-0.11112 z m -11.96585,-1.10715 c 0.0582,-0.0235 0.15346,-0.0235 0.21167,0 0.0582,0.0235 0.0106,0.0427 -0.10584,0.0427 -0.11641,0 -0.16404,-0.0192 -0.10583,-0.0427 z m 1.18533,0 c 0.0582,-0.0235 0.15346,-0.0235 0.21167,0 0.0582,0.0235 0.0106,0.0427 -0.10583,0.0427 -0.11642,0 -0.16404,-0.0192 -0.10584,-0.0427 z m -10.83733,-0.17595 c 0.29104,-0.0165 0.76729,-0.0165 1.05833,0 0.29105,0.0165 0.0529,0.0301 -0.52916,0.0301 -0.58209,0 -0.82021,-0.0135 -0.52917,-0.0301 z m 14.86383,-0.33943 c 0.54978,-0.0148 1.42608,-0.0147 1.94733,1.1e-4 0.52125,0.0148 0.0714,0.0269 -0.99961,0.0269 -1.07103,-6e-5 -1.49751,-0.0122 -0.94772,-0.027 z m -12.66146,-0.0813 c 0.10532,-0.0202 0.25772,-0.0195 0.33867,0.002 0.081,0.0212 -0.005,0.0378 -0.19149,0.0368 -0.18627,-9.4e-4 -0.2525,-0.0183 -0.14718,-0.0385 z m 6.30106,-0.25762 c 0.0255,-0.22152 0.0513,-0.23409 0.53126,-0.25875 0.7022,-0.0361 0.89253,0.024 0.89253,0.28153 0,0.20728 -0.01,0.21006 -0.72529,0.21006 h -0.72529 z m 2.43979,0.031 c 0,-0.23254 0.17893,-0.3039 0.762,-0.3039 0.58306,0 0.762,0.0714 0.762,0.3039 0,0.19766 -0.0156,0.20179 -0.762,0.20179 -0.74641,0 -0.762,-0.004 -0.762,-0.20179 z"
         id="path7"
         sodipodi:nodetypes="cccccccccccssccscccscccsscccccccscccccscccscccsssssssssssscscccsssssssscsscsscsscccccsssscssssss" /><path
         style="fill:#7786b8"
         d="m 182.49974,170.83928 c 0,-0.0176 0.0667,-0.0843 0.14817,-0.14817 0.13428,-0.10531 0.13728,-0.10232 0.032,0.032 -0.1106,0.14103 -0.18013,0.18588 -0.18013,0.1162 z m 0.61231,-1.3227 c 0,-0.16299 0.0174,-0.22966 0.0387,-0.14817 0.0213,0.0815 0.0213,0.21484 0,0.29633 -0.0213,0.0815 -0.0387,0.0148 -0.0387,-0.14816 z m 0.51305,-0.65555 c 0.31626,-0.0163 0.81156,-0.0162 1.10066,2.6e-4 0.28911,0.0165 0.0303,0.0299 -0.57502,0.0297 -0.60537,-1.4e-4 -0.84191,-0.0136 -0.52564,-0.03 z m -1.56457,-0.50298 c 0.0611,-0.0245 0.13415,-0.0215 0.16228,0.007 0.0281,0.0281 -0.0219,0.0481 -0.11112,0.0445 -0.0986,-0.004 -0.1187,-0.0241 -0.0512,-0.0512 z m -5.74786,-2.12233 -0.20526,-0.23283 0.23283,0.20526 c 0.12806,0.11289 0.23283,0.21767 0.23283,0.23283 0,0.0664 -0.0686,0.0124 -0.2604,-0.20526 z m -3.60334,-3.78883 c 2.2e-4,-0.46567 0.0144,-0.64536 0.0316,-0.39933 0.0171,0.24604 0.017,0.62704 -4e-4,0.84667 -0.0174,0.21963 -0.0314,0.0183 -0.0312,-0.44734 z m 1.50958,-1.01598 c 0.002,-0.1397 0.0207,-0.1866 0.0422,-0.10422 0.0215,0.0824 0.0201,0.19668 -0.003,0.254 -0.0232,0.0573 -0.0408,-0.0101 -0.039,-0.14978 z m -0.003,-0.635 c 0,-0.11642 0.0192,-0.16404 0.0427,-0.10583 0.0235,0.0582 0.0235,0.15346 0,0.21166 -0.0235,0.0582 -0.0427,0.0106 -0.0427,-0.10583 z m 16.18333,-0.254 c 0,-0.25612 0.0159,-0.36089 0.0353,-0.23283 0.0194,0.12806 0.0194,0.33761 0,0.46566 -0.0194,0.12806 -0.0353,0.0233 -0.0353,-0.23283 z m -17.76966,-3.09033 c 7e-5,-0.9779 0.0124,-1.36636 0.0274,-0.86323 0.015,0.50312 0.0149,1.30322 -1.3e-4,1.778 -0.0151,0.47477 -0.0273,0.0631 -0.0273,-0.91477 z m 20.216,0.67733 c 0.002,-0.1397 0.0207,-0.1866 0.0422,-0.10422 0.0215,0.0824 0.02,0.19668 -0.003,0.254 -0.0232,0.0573 -0.0408,-0.0101 -0.039,-0.14978 z m -22.68007,-0.635 c 0,-0.30268 0.0154,-0.42651 0.0341,-0.27517 0.0188,0.15135 0.0188,0.399 0,0.55034 -0.0188,0.15134 -0.0341,0.0275 -0.0341,-0.27517 z m 22.68007,-1.143 c 0.002,-0.1397 0.0207,-0.1866 0.0422,-0.10422 0.0215,0.0824 0.02,0.19668 -0.003,0.254 -0.0232,0.0573 -0.0408,-0.0101 -0.039,-0.14978 z m -16.48417,-0.38098 c 0.18188,-0.18627 0.34975,-0.33867 0.37303,-0.33867 0.0233,0 -0.10648,0.1524 -0.28837,0.33867 -0.18188,0.18627 -0.34975,0.33867 -0.37303,0.33867 -0.0233,0 0.10648,-0.1524 0.28837,-0.33867 z m 10.23662,-0.0211 -0.16129,-0.1905 0.1905,0.16129 c 0.17902,0.15157 0.22904,0.21971 0.16129,0.21971 -0.0161,0 -0.10179,-0.0857 -0.1905,-0.1905 z m -16.36827,-0.4515 c 0.004,-0.0986 0.0241,-0.1187 0.0512,-0.0512 0.0245,0.0611 0.0215,0.13414 -0.007,0.16227 -0.0281,0.0281 -0.0482,-0.0219 -0.0445,-0.11112 z m 20.08778,-1.13595 c 0,-0.34925 0.0149,-0.49212 0.0332,-0.3175 0.0183,0.17463 0.0183,0.46038 0,0.635 -0.0183,0.17463 -0.0332,0.0318 -0.0332,-0.3175 z m -7.96597,-0.99451 c 0.5006,-0.015 1.31975,-0.015 1.82034,0 0.50059,0.015 0.091,0.0272 -0.91017,0.0272 -1.00118,0 -1.41076,-0.0123 -0.91017,-0.0272 z"
         id="path5"
         sodipodi:nodetypes="ssssssssssscssccsccccsscscsscscccsssssssssscsscscccscsscscccsssssscssscscccsssscssc" /><path
         style="fill:#2a4291"
         d="m 181.08609,171.09852 c -0.0236,-0.0381 -0.0961,-0.0488 -0.16125,-0.0238 -0.0651,0.025 -0.11843,0.006 -0.11843,-0.0416 0,-0.0479 -0.0341,-0.0659 -0.0758,-0.0402 -0.0417,0.0258 -0.0986,-0.0125 -0.1264,-0.085 -0.0278,-0.0725 -0.0839,-0.11131 -0.12456,-0.0862 -0.0407,0.0251 -0.14571,-0.0336 -0.23343,-0.13053 -0.0877,-0.0969 -0.14749,-0.18175 -0.13285,-0.1885 0.0276,-0.0127 0.003,-0.0911 -0.16142,-0.52028 -0.1095,-0.2853 -0.1342,-0.72775 -0.0484,-0.86661 0.0312,-0.0505 0.0324,-0.15515 0.003,-0.23261 -0.0475,-0.12386 -0.19558,-0.13754 -1.22806,-0.11348 -0.64571,0.0151 -1.17396,-0.006 -1.17389,-0.046 6e-5,-0.0403 -0.096,-0.055 -0.21357,-0.0325 -0.11753,0.0225 -0.23568,0.005 -0.26256,-0.0382 -0.0269,-0.0435 -0.0997,-0.0596 -0.16185,-0.0357 -0.0621,0.0238 -0.12495,0.009 -0.1396,-0.0341 -0.0146,-0.0426 -0.12189,-0.0881 -0.2383,-0.10107 -0.11642,-0.013 -0.23072,-0.0427 -0.254,-0.066 -0.0932,-0.0932 -0.70802,-0.37821 -0.73057,-0.33867 -0.0133,0.0233 -0.0817,-0.0339 -0.1521,-0.127 -0.0704,-0.0931 -0.12916,-0.13863 -0.13064,-0.10111 -0.001,0.0375 -0.10102,-0.0387 -0.22119,-0.16933 -0.12017,-0.13066 -0.19091,-0.18041 -0.15719,-0.11056 0.0337,0.0699 -0.0851,-0.0254 -0.264,-0.21166 -0.17891,-0.18627 -0.31846,-0.36505 -0.31009,-0.3973 0.008,-0.0323 -0.078,-0.13197 -0.19197,-0.22159 -0.11395,-0.0896 -0.18397,-0.18618 -0.1556,-0.21455 0.0284,-0.0284 -0.0108,-0.0755 -0.0871,-0.10478 -0.0762,-0.0292 -0.12112,-0.0815 -0.0997,-0.11617 0.0214,-0.0346 -0.0337,-0.14088 -0.12239,-0.23611 -0.0887,-0.0952 -0.1382,-0.19625 -0.10996,-0.22449 0.0282,-0.0282 0.005,-0.0514 -0.0524,-0.0514 -0.0571,0 -0.0802,-0.0381 -0.0514,-0.0847 0.0288,-0.0466 0.0132,-0.0847 -0.0347,-0.0847 -0.0479,0 -0.067,-0.0522 -0.0425,-0.11608 0.0245,-0.0638 -0.008,-0.16896 -0.073,-0.23359 -0.0646,-0.0646 -0.10174,-0.16479 -0.0825,-0.22259 0.0193,-0.0578 -0.005,-0.10507 -0.054,-0.10507 -0.049,0 -0.0671,-0.0571 -0.0403,-0.127 0.0268,-0.0699 0.0101,-0.127 -0.0371,-0.127 -0.0472,0 -0.0659,-0.0762 -0.0415,-0.16934 0.0244,-0.0931 0.007,-0.16933 -0.0385,-0.16933 -0.0455,0 -0.0646,-0.0952 -0.0423,-0.21167 0.0222,-0.11641 0.007,-0.21173 -0.0329,-0.2118 -0.0406,-8e-5 -0.0733,-2.28849 -0.0732,-5.11945 1.2e-4,-4.43685 0.0171,-5.13568 0.127,-5.24217 0.10744,-0.10404 0.80761,-0.12376 4.57187,-0.12872 8.6623,-0.0114 12.56932,0.0285 12.63457,0.12901 0.0769,0.11854 0.0939,9.93486 0.0175,10.13393 -0.0307,0.08 -0.0365,0.2192 -0.0129,0.30941 0.0236,0.0902 0.01,0.17536 -0.0313,0.18923 -0.0408,0.0139 -0.0844,0.16803 -0.0968,0.34256 -0.0124,0.17453 -0.0553,0.31741 -0.0952,0.3175 -0.0399,9e-5 -0.0506,0.0573 -0.0238,0.12717 0.0268,0.0699 0.008,0.127 -0.0423,0.127 -0.0501,0 -0.0691,0.0572 -0.0423,0.127 0.0268,0.0699 0.01,0.127 -0.0383,0.127 -0.0479,0 -0.0635,0.0381 -0.0347,0.0847 0.0288,0.0466 0.0166,0.0847 -0.0271,0.0847 -0.0715,0 -0.29636,0.43709 -0.28022,0.54469 0.004,0.0242 -0.0881,0.14608 -0.20374,0.2709 -0.11568,0.12483 -0.19219,0.24509 -0.17002,0.26726 0.0222,0.0222 -0.054,0.11449 -0.1693,0.20517 -0.11529,0.0907 -0.19155,0.1941 -0.16948,0.22981 0.0501,0.081 -0.41348,0.53432 -0.47923,0.46857 -0.0264,-0.0264 -0.12346,0.048 -0.21572,0.16527 -0.0923,0.11729 -0.19096,0.19005 -0.21933,0.16168 -0.0284,-0.0284 -0.0755,0.0108 -0.10478,0.0871 -0.0293,0.0762 -0.0876,0.11738 -0.12959,0.0914 -0.042,-0.026 -0.0992,0.0121 -0.127,0.0847 -0.0278,0.0725 -0.0847,0.1108 -0.1264,0.085 -0.0417,-0.0258 -0.0758,-0.004 -0.0758,0.0478 0,0.0521 -0.0381,0.0711 -0.0847,0.0423 -0.0466,-0.0288 -0.0847,-0.01 -0.0847,0.0423 0,0.0521 -0.0381,0.0711 -0.0847,0.0423 -0.0466,-0.0288 -0.0847,-0.0132 -0.0847,0.0347 0,0.0479 -0.0572,0.0651 -0.127,0.0383 -0.0699,-0.0268 -0.127,-0.008 -0.127,0.0423 0,0.0501 -0.0572,0.0691 -0.127,0.0423 -0.0699,-0.0268 -0.127,-0.008 -0.127,0.0423 0,0.0501 -0.0572,0.0691 -0.127,0.0423 -0.0699,-0.0268 -0.127,-0.0118 -0.127,0.0332 0,0.0451 -0.0952,0.0638 -0.21167,0.0415 -0.11642,-0.0223 -0.21161,-0.007 -0.21154,0.0329 6e-5,0.0403 -0.58706,0.062 -1.30472,0.0481 l -1.30483,-0.0252 -0.0412,0.2369 c -0.0227,0.13029 -0.0356,0.41787 -0.0288,0.63906 0.007,0.2212 -0.0202,0.40217 -0.0601,0.40217 -0.0399,0 -0.0506,0.0572 -0.0238,0.127 0.0268,0.0699 0.005,0.127 -0.0474,0.127 -0.0529,0 -0.0725,0.0236 -0.0437,0.0524 0.0748,0.0748 -0.59474,0.61616 -0.83721,0.67701 -0.11163,0.028 -0.20297,0.0754 -0.20297,0.10527 0,0.0801 -0.68618,0.0662 -0.73632,-0.015 z m 0.73632,-0.40139 c 0,-0.0493 0.0381,-0.0661 0.0847,-0.0373 0.0466,0.0288 0.0847,0.01 0.0847,-0.0423 0,-0.0521 0.0326,-0.0745 0.0724,-0.0499 0.0398,0.0246 0.16074,-0.0494 0.26876,-0.16433 0.10802,-0.11498 0.16799,-0.20906 0.13326,-0.20906 -0.0347,0 -0.003,-0.0599 0.0699,-0.13305 0.1509,-0.1509 0.18687,-0.88295 0.0434,-0.88295 -0.0493,0 -0.0661,-0.0381 -0.0373,-0.0847 0.0288,-0.0466 0.01,-0.0847 -0.0423,-0.0847 -0.0521,0 -0.0736,-0.0341 -0.0478,-0.0758 0.0807,-0.13058 -0.19282,-0.1782 -1.02348,-0.1782 -0.57052,0 -0.83736,0.0339 -0.92038,0.11692 -0.0643,0.0643 -0.0933,0.1405 -0.0645,0.16933 0.0288,0.0288 0.004,0.0524 -0.0554,0.0524 -0.0611,0 -0.0867,0.0551 -0.0591,0.127 0.0268,0.0699 0.0118,0.127 -0.0333,0.127 -0.0451,0 -0.082,0.0952 -0.082,0.21167 0,0.11642 0.0369,0.21167 0.082,0.21167 0.0451,0 0.0601,0.0571 0.0333,0.127 -0.0268,0.0699 -0.007,0.127 0.045,0.127 0.0515,0 0.0858,0.0286 0.0762,0.0635 -0.0229,0.0829 0.4462,0.57143 0.6102,0.63551 0.21997,0.0859 0.762,0.067 0.762,-0.0267 z m 0.37755,-2.27542 c 0.0269,-0.0435 0.18154,-0.0576 0.34367,-0.0313 0.17787,0.0289 0.29478,0.013 0.29478,-0.04 0,-0.0483 0.0719,-0.069 0.15978,-0.046 0.0879,0.023 0.18434,0.002 0.21437,-0.0466 0.03,-0.0486 0.11053,-0.0669 0.17889,-0.0406 0.0684,0.0262 0.12429,0.007 0.12429,-0.0434 0,-0.0501 0.0571,-0.0691 0.127,-0.0423 0.0699,0.0268 0.127,0.008 0.127,-0.0423 0,-0.0501 0.0572,-0.0691 0.127,-0.0423 0.0699,0.0268 0.127,0.008 0.127,-0.0423 0,-0.0501 0.0522,-0.071 0.11608,-0.0465 0.0639,0.0245 0.17361,-0.013 0.24392,-0.0833 0.0703,-0.0703 0.15143,-0.10425 0.18025,-0.0754 0.0288,0.0288 0.0524,0.006 0.0524,-0.0514 0,-0.0571 0.0381,-0.0802 0.0847,-0.0514 0.0466,0.0288 0.0847,0.01 0.0847,-0.0423 0,-0.0521 0.0381,-0.0711 0.0847,-0.0423 0.0466,0.0288 0.0847,0.01 0.0847,-0.0423 0,-0.0521 0.0367,-0.072 0.0816,-0.0442 0.0449,0.0277 0.156,-0.024 0.24695,-0.11495 0.0909,-0.0909 0.18669,-0.14403 0.21276,-0.11797 0.0261,0.0261 0.0713,-0.015 0.10059,-0.0912 0.0293,-0.0762 0.0847,-0.11917 0.1232,-0.0954 0.0385,0.0238 0.12976,-0.0421 0.2028,-0.14633 0.073,-0.10427 0.13279,-0.15447 0.13279,-0.11156 0,0.0429 0.26415,-0.18498 0.58701,-0.50641 0.32285,-0.32144 0.56808,-0.61504 0.54496,-0.65245 -0.0231,-0.0374 0.0168,-0.0906 0.0886,-0.11815 0.14086,-0.0541 0.52735,-0.62733 0.49338,-0.73184 -0.0113,-0.0349 0.0104,-0.0635 0.0484,-0.0635 0.1082,0 0.45552,-0.66664 0.39681,-0.76164 -0.0289,-0.0468 -0.01,-0.085 0.0421,-0.085 0.0521,0 0.0711,-0.0381 0.0423,-0.0847 -0.0288,-0.0466 -0.008,-0.0847 0.0464,-0.0847 0.0543,0 0.0768,-0.0571 0.05,-0.127 -0.0268,-0.0699 -0.008,-0.127 0.0423,-0.127 0.0501,0 0.0691,-0.0572 0.0423,-0.127 -0.0268,-0.0699 -0.008,-0.127 0.0423,-0.127 0.0501,0 0.0691,-0.0572 0.0423,-0.127 -0.0268,-0.0699 -0.007,-0.127 0.0431,-0.127 0.0523,0 0.0745,-0.0911 0.0514,-0.21166 -0.0223,-0.11642 -0.003,-0.21167 0.0423,-0.21167 0.0455,0 0.0644,-0.0962 0.042,-0.21369 -0.0225,-0.11753 -0.0136,-0.23053 0.0197,-0.25111 0.0868,-0.0537 0.0805,-1.99053 -0.007,-1.99053 -0.0399,0 -0.0496,-0.1143 -0.0217,-0.254 0.0302,-0.15088 0.0153,-0.254 -0.0365,-0.254 -0.048,0 -0.0674,-0.0762 -0.043,-0.16934 0.0257,-0.0984 0.003,-0.16933 -0.0553,-0.16933 -0.0548,0 -0.0799,-0.0318 -0.0559,-0.0707 0.0608,-0.0983 -0.12984,-0.6913 -0.22223,-0.6913 -0.0415,0 -0.0537,-0.0352 -0.0271,-0.0783 0.0633,-0.10236 -0.12533,-0.51435 -0.23545,-0.51435 -0.0469,0 -0.0613,-0.0239 -0.0321,-0.0531 0.0718,-0.0718 -0.17615,-0.5396 -0.28602,-0.5396 -0.0481,0 -0.0638,-0.0384 -0.0348,-0.0853 0.029,-0.0469 -0.007,-0.10804 -0.0792,-0.13587 -0.0725,-0.0278 -0.11064,-0.085 -0.0847,-0.127 0.026,-0.042 -0.0123,-0.0992 -0.0851,-0.12719 -0.0728,-0.0279 -0.13237,-0.10127 -0.13237,-0.16297 0,-0.0617 -0.11649,-0.19512 -0.25887,-0.29651 -0.14239,-0.10138 -0.23755,-0.20566 -0.21149,-0.23173 0.0668,-0.0668 -0.21076,-0.35746 -0.34133,-0.35746 -0.0595,0 -0.18982,-0.11475 -0.28969,-0.255 -0.0999,-0.14025 -0.21484,-0.23443 -0.25551,-0.20929 -0.0407,0.0251 -0.11587,-0.0326 -0.16711,-0.12838 -0.0512,-0.0957 -0.12536,-0.15418 -0.16471,-0.12986 -0.0394,0.0243 -0.0943,-0.0151 -0.12215,-0.0877 -0.0278,-0.0725 -0.089,-0.10817 -0.13587,-0.0792 -0.0469,0.029 -0.0853,0.006 -0.0853,-0.0511 0,-0.0571 -0.0248,-0.079 -0.0551,-0.0486 -0.0303,0.0303 -0.097,6.7e-4 -0.14816,-0.0659 -0.0512,-0.0666 -0.14929,-0.13265 -0.21803,-0.14685 -0.0687,-0.0142 -0.17843,-0.0756 -0.24375,-0.13652 -0.0653,-0.0609 -0.171,-0.0907 -0.23485,-0.0662 -0.0638,0.0245 -0.11608,0.005 -0.11608,-0.0425 0,-0.0478 -0.0381,-0.0635 -0.0847,-0.0347 -0.0466,0.0288 -0.0847,0.008 -0.0847,-0.0464 0,-0.0543 -0.0572,-0.0768 -0.127,-0.05 -0.0699,0.0268 -0.127,0.008 -0.127,-0.0423 0,-0.0501 -0.0572,-0.0691 -0.127,-0.0423 -0.0699,0.0268 -0.127,0.009 -0.127,-0.039 0,-0.0509 -0.0755,-0.0638 -0.17994,-0.0306 -0.13179,0.0418 -0.16239,0.0287 -0.11437,-0.049 0.0493,-0.0797 0.008,-0.0917 -0.16583,-0.048 -0.16695,0.0419 -0.21421,0.0303 -0.16972,-0.0417 0.0454,-0.0735 -0.0218,-0.0841 -0.25524,-0.0403 -0.1743,0.0327 -0.29665,0.0267 -0.2719,-0.0134 0.0248,-0.04 -0.4071,-0.0728 -0.95967,-0.0728 -0.55257,0 -0.98442,0.0328 -0.95967,0.0728 0.0248,0.0401 -0.0976,0.0461 -0.2719,0.0134 -0.23341,-0.0438 -0.30066,-0.0332 -0.25524,0.0403 0.0445,0.072 -0.003,0.0836 -0.16972,0.0417 -0.17386,-0.0436 -0.21509,-0.0317 -0.16583,0.048 0.048,0.0777 0.0174,0.0908 -0.11437,0.049 -0.10443,-0.0332 -0.17994,-0.0203 -0.17994,0.0306 0,0.0482 -0.0572,0.0658 -0.127,0.039 -0.0699,-0.0268 -0.127,-0.008 -0.127,0.0423 0,0.0501 -0.0572,0.0691 -0.127,0.0423 -0.0699,-0.0268 -0.127,-0.004 -0.127,0.05 0,0.0543 -0.0381,0.0752 -0.0847,0.0464 -0.0466,-0.0288 -0.0847,-0.01 -0.0847,0.0423 0,0.0521 -0.037,0.0718 -0.0822,0.0439 -0.10402,-0.0643 -0.59515,0.18491 -0.59515,0.30197 0,0.0481 -0.0381,0.0639 -0.0847,0.0352 -0.0466,-0.0288 -0.0847,-0.01 -0.0847,0.0423 0,0.0521 -0.0384,0.0709 -0.0853,0.042 -0.0469,-0.029 -0.10804,0.007 -0.13587,0.0792 -0.0278,0.0725 -0.0824,0.11225 -0.1212,0.0883 -0.0388,-0.024 -0.10987,0.0238 -0.15789,0.10632 -0.048,0.0825 -0.0895,0.11184 -0.0922,0.0653 -0.003,-0.0466 -0.1086,0.0311 -0.2354,0.17263 -0.12681,0.14152 -0.19732,0.20819 -0.15669,0.14817 0.15411,-0.22769 -0.0116,-0.0915 -0.49985,0.41069 -0.27795,0.2859 -0.4482,0.49224 -0.37835,0.45854 0.0699,-0.0337 -0.006,0.0552 -0.16934,0.19756 -0.16298,0.14237 -0.25823,0.26104 -0.21166,0.2637 0.0466,0.003 0.0172,0.0441 -0.0653,0.0921 -0.0825,0.048 -0.13032,0.11906 -0.10632,0.15789 0.024,0.0388 -0.0157,0.0934 -0.0883,0.1212 -0.0725,0.0278 -0.10816,0.089 -0.0792,0.13587 0.029,0.0469 0.0101,0.0853 -0.042,0.0853 -0.0521,0 -0.0711,0.0381 -0.0423,0.0847 0.0288,0.0466 0.013,0.0847 -0.0352,0.0847 -0.099,0 -0.31393,0.38108 -0.35859,0.63569 -0.0163,0.0928 -0.0572,0.18934 -0.0909,0.21465 -0.0337,0.0253 -0.0755,0.12055 -0.0929,0.21167 -0.0173,0.0911 -0.0765,0.27571 -0.13151,0.41023 -0.055,0.13452 -0.0802,0.26436 -0.056,0.28854 0.0242,0.0242 0.002,0.0946 -0.0494,0.15652 -0.0514,0.0619 -0.0718,0.16896 -0.0453,0.23791 0.0265,0.069 0.008,0.15042 -0.042,0.18104 -0.0538,0.0332 -0.0693,0.18584 -0.0385,0.3786 0.0293,0.18322 0.0149,0.34561 -0.0332,0.37537 -0.10569,0.0653 -0.11278,0.86186 -0.008,0.92646 0.0421,0.026 0.0562,0.19974 0.0312,0.386 -0.0266,0.19823 -0.0106,0.33865 0.0387,0.33865 0.0462,0 0.0659,0.0952 0.0436,0.21167 -0.0223,0.11641 -0.001,0.21166 0.0461,0.21166 0.0476,0 0.0667,0.0762 0.0423,0.16934 -0.0243,0.0931 -0.003,0.16933 0.0476,0.16933 0.0505,0 0.07,0.0572 0.0431,0.127 -0.0268,0.0699 -0.008,0.127 0.0423,0.127 0.0501,0 0.0691,0.0572 0.0423,0.127 -0.0268,0.0699 -0.008,0.127 0.0423,0.127 0.0501,0 0.071,0.0522 0.0465,0.11608 -0.0245,0.0639 0.013,0.17361 0.0833,0.24392 0.0703,0.0703 0.10425,0.15143 0.0754,0.18025 -0.0288,0.0288 -0.006,0.0524 0.0514,0.0524 0.0571,0 0.0802,0.0381 0.0514,0.0847 -0.0288,0.0466 -0.01,0.0847 0.0423,0.0847 0.0521,0 0.0711,0.0381 0.0423,0.0847 -0.0288,0.0466 -0.01,0.0847 0.0423,0.0847 0.0521,0 0.0711,0.0381 0.0423,0.0847 -0.0288,0.0466 -0.012,0.0847 0.0373,0.0847 0.0493,0 0.0802,0.0286 0.0686,0.0635 -0.0343,0.10359 0.34598,0.6985 0.4465,0.6985 0.0509,0 0.0702,0.0362 0.0428,0.0804 -0.0273,0.0442 0.0642,0.16457 0.20334,0.26746 0.13917,0.10289 0.23683,0.21329 0.21703,0.24532 -0.0406,0.0657 0.41962,0.53092 0.50595,0.51139 0.0307,-0.007 0.13384,0.0866 0.22923,0.20786 0.0954,0.12127 0.19288,0.20106 0.21663,0.1773 0.0238,-0.0238 0.1134,0.0409 0.1992,0.14371 0.0858,0.1028 0.15727,0.15833 0.15882,0.1234 0.002,-0.0349 0.0804,0.0141 0.17524,0.10892 0.0948,0.0948 0.20913,0.14974 0.254,0.122 0.0449,-0.0277 0.0816,-0.0183 0.0816,0.021 0,0.0918 0.41489,0.33671 0.635,0.37488 0.0931,0.0161 0.22187,0.0792 0.28608,0.14007 0.0642,0.0609 0.16653,0.0916 0.22737,0.0683 0.0608,-0.0233 0.12429,-0.001 0.141,0.0487 0.0167,0.0502 0.15245,0.0956 0.30161,0.10108 0.14917,0.005 0.27131,0.0429 0.27141,0.0833 1.1e-4,0.0404 0.0954,0.0552 0.21186,0.0329 0.11642,-0.0223 0.21167,-0.003 0.21167,0.0435 0,0.0487 0.12447,0.0638 0.29633,0.0359 0.16299,-0.0264 0.29634,-0.0124 0.29634,0.0312 0,0.10347 1.32961,0.10371 1.39355,2.6e-4 z m -11.5734,-7.57396 c -0.0808,-0.0609 -0.12458,-0.13297 -0.0974,-0.16019 0.0272,-0.0272 0.0183,-0.0997 -0.0199,-0.16096 -0.0382,-0.0613 -0.0583,-0.19719 -0.0447,-0.30197 0.0135,-0.10477 -0.008,-0.1905 -0.0472,-0.1905 -0.0395,0 -0.0573,-0.1524 -0.0395,-0.33867 0.0178,-0.18626 -2.8e-4,-0.33866 -0.0401,-0.33866 -0.0833,1e-5 -0.0718,-3.67401 0.0119,-3.8094 0.0304,-0.0492 0.0472,-0.21237 0.0373,-0.36255 -0.01,-0.15018 0.0104,-0.33973 0.0451,-0.42122 0.0347,-0.0815 0.0417,-0.2041 0.0154,-0.27245 -0.0262,-0.0684 -0.009,-0.14806 0.0377,-0.1771 0.047,-0.029 0.0708,-0.0966 0.053,-0.15012 -0.0751,-0.22541 0.19038,-0.30041 1.1553,-0.32635 l 0.9852,-0.0265 -1.7e-4,0.9525 c -1e-4,0.57844 -0.0334,0.9525 -0.0848,0.9525 -0.0546,0 -0.085,0.92486 -0.0855,2.6035 l -8.7e-4,2.6035 -0.86696,0.0177 c -0.60638,0.0123 -0.91109,-0.0156 -1.0138,-0.093 z m 19.91733,-3.49901 8.2e-4,-3.53761 0.95529,-0.0151 c 0.9238,-0.0146 0.95573,-0.009 0.96908,0.16808 0.008,0.10077 0.0515,0.19577 0.0975,0.21111 0.046,0.0153 0.0634,0.0808 0.0386,0.14537 -0.0248,0.0646 -0.0145,0.1669 0.0228,0.22731 0.0373,0.0604 0.057,0.21377 0.0437,0.3408 -0.0133,0.12704 0.006,0.27916 0.0419,0.33805 0.16341,0.2644 0.16641,4.04545 0.003,4.04543 -0.0385,-1e-5 -0.062,0.14287 -0.0522,0.31749 0.01,0.17463 -0.0104,0.38418 -0.0449,0.46567 -0.0345,0.0815 -0.0408,0.20531 -0.014,0.27516 0.0268,0.0699 0.0145,0.127 -0.0274,0.127 -0.0419,0 -0.0883,0.0857 -0.10318,0.1905 -0.026,0.18299 -0.0646,0.19145 -0.97956,0.21444 l -0.9525,0.0239 z"
         id="path2"
         sodipodi:nodetypes="csscsssscsccsscccscsscssscssssssssssccssssscsscsssscsssssssscssssssscssssssssssssssssccccsssssscccssssscssscsssssssssscscccsssscssssssssssssscsssscsssssssssssssssssscsscscscscsssscccssssscssssscssssssssssscscsscsssscscssssssscscsccsscssssccssssssssscsssscscssssscscssssssssssssscscsscssscscssssccssscsccssscsssscscccscsscccssccscsssscscssssscc" /><path
         style="fill:#1e388b"
         d="m 181.33557,171.15141 c 0.0815,-0.0213 0.21485,-0.0213 0.29634,0 0.0815,0.0213 0.0148,0.0387 -0.14817,0.0387 -0.16298,0 -0.22966,-0.0174 -0.14817,-0.0387 z m 0.74084,-0.1613 c 0.16298,-0.0706 0.41049,-0.23103 0.55002,-0.35652 l 0.2537,-0.22816 -0.21136,0.24087 c -0.22322,0.2544 -0.59436,0.48103 -0.77866,0.47548 -0.0605,-0.002 0.0233,-0.0611 0.1863,-0.13167 z m -0.78317,-0.26357 c 0.10478,-0.0202 0.27623,-0.0202 0.381,0 0.10478,0.0202 0.0191,0.0367 -0.1905,0.0367 -0.20955,0 -0.29527,-0.0165 -0.1905,-0.0367 z m -0.4439,-0.10829 c -0.0297,-0.048 0.004,-0.0622 0.0797,-0.0333 0.14668,0.0563 0.17351,0.11697 0.0517,0.11697 -0.0438,0 -0.10295,-0.0377 -0.1314,-0.0837 z m 1.3964,-0.21263 c 0.10937,-0.11642 0.2179,-0.21167 0.24118,-0.21167 0.0233,0 -0.0471,0.0952 -0.15651,0.21167 -0.10937,0.11641 -0.2179,0.21166 -0.24119,0.21166 -0.0233,0 0.0471,-0.0952 0.15652,-0.21166 z m -2.31787,-0.2569 c -0.029,-0.0757 -0.0504,-0.18208 -0.0474,-0.23648 0.003,-0.0544 0.0419,-0.008 0.0865,0.10388 0.0446,0.11154 0.0659,0.21796 0.0474,0.23649 -0.0185,0.0185 -0.0574,-0.0282 -0.0865,-0.10389 z m 2.63033,-0.43023 c 0.0558,-0.57343 0.0965,-0.65336 0.10289,-0.20191 0.003,0.20955 -0.028,0.43376 -0.0689,0.49825 -0.0457,0.0722 -0.0588,-0.0416 -0.034,-0.29634 z m 0.46291,0.0521 c 0,-0.11642 0.0192,-0.16404 0.0427,-0.10584 0.0235,0.0582 0.0235,0.15346 0,0.21167 -0.0235,0.0582 -0.0427,0.0106 -0.0427,-0.10583 z m -2.79086,-0.21173 c 0.002,-0.1397 0.0207,-0.1866 0.0422,-0.10422 0.0215,0.0824 0.0201,0.19668 -0.003,0.254 -0.0232,0.0573 -0.0408,-0.0101 -0.039,-0.14978 z m -0.42334,-0.0847 c 0.002,-0.1397 0.0207,-0.1866 0.0422,-0.10422 0.0215,0.0824 0.0201,0.19668 -0.003,0.254 -0.0232,0.0573 -0.0408,-0.0101 -0.039,-0.14978 z m 3.2142,-0.2963 c 0,-0.11642 0.0192,-0.16404 0.0427,-0.10583 0.0235,0.0582 0.0235,0.15346 0,0.21166 -0.0235,0.0582 -0.0427,0.0106 -0.0427,-0.10583 z m -4.8182,-0.40147 c 0.31432,-0.0163 0.82867,-0.0163 1.143,0 0.31432,0.0163 0.0572,0.0296 -0.5715,0.0296 -0.62865,0 -0.88583,-0.0133 -0.5715,-0.0296 z m 2.79709,2e-4 c 0.26946,-0.0169 0.68856,-0.0167 0.93133,3.5e-4 0.24278,0.017 0.0223,0.0308 -0.48992,0.0306 -0.51224,-1.9e-4 -0.71087,-0.0141 -0.44141,-0.031 z m 2.70624,-2.7e-4 c 0.36089,-0.0159 0.95144,-0.0159 1.31233,0 0.3609,0.0159 0.0656,0.0289 -0.65616,0.0289 -0.72179,0 -1.01706,-0.013 -0.65617,-0.0289 z m -6.477,-0.0778 c 0.0582,-0.0235 0.15346,-0.0235 0.21167,0 0.0582,0.0235 0.0106,0.0427 -0.10584,0.0427 -0.11641,0 -0.16404,-0.0192 -0.10583,-0.0427 z m 8.55133,0 c 0.0582,-0.0235 0.15346,-0.0235 0.21167,0 0.0582,0.0235 0.0106,0.0427 -0.10583,0.0427 -0.11642,0 -0.16404,-0.0192 -0.10584,-0.0427 z m -9.37683,-0.19818 c -0.15477,-0.10002 -0.0211,-0.10002 0.21167,0 0.11165,0.048 0.12607,0.0744 0.0423,0.0774 -0.0699,0.003 -0.18415,-0.0323 -0.254,-0.0774 z m 4.72017,-0.0617 c 0.19791,-0.0178 0.52176,-0.0178 0.71966,0 0.19791,0.0178 0.036,0.0324 -0.35983,0.0324 -0.39582,0 -0.55774,-0.0146 -0.35983,-0.0324 z m -0.80272,-0.0813 c 0.0824,-0.0215 0.19667,-0.0201 0.254,0.003 0.0573,0.0232 -0.0101,0.0408 -0.14978,0.039 -0.1397,-0.002 -0.1866,-0.0207 -0.10422,-0.0422 z m 2.20133,0 c 0.0824,-0.0215 0.19668,-0.0201 0.254,0.003 0.0573,0.0232 -0.0101,0.0408 -0.14978,0.039 -0.1397,-0.002 -0.1866,-0.0207 -0.10422,-0.0422 z m -2.66861,-0.0818 c 0.0582,-0.0235 0.15346,-0.0235 0.21166,0 0.0582,0.0235 0.0106,0.0427 -0.10583,0.0427 -0.11642,0 -0.16404,-0.0192 -0.10583,-0.0427 z m 3.13796,-0.002 c 0.0611,-0.0245 0.13414,-0.0214 0.16227,0.007 0.0281,0.0281 -0.0219,0.0481 -0.11112,0.0445 -0.0986,-0.004 -0.1187,-0.0241 -0.0512,-0.0512 z m -7.39745,-0.15849 c -0.15782,-0.12644 -0.15678,-0.12801 0.0262,-0.0394 0.10478,0.0508 0.1905,0.11003 0.1905,0.13167 0,0.0648 -0.0439,0.0461 -0.21665,-0.0923 z m 3.73032,0.047 c -0.10673,-0.0459 -0.12238,-0.0728 -0.0423,-0.0728 0.0699,0 0.2032,0.0327 0.29633,0.0728 0.10673,0.0459 0.12238,0.0728 0.0423,0.0728 -0.0699,0 -0.2032,-0.0328 -0.29633,-0.0728 z m -0.46567,-0.1695 c -0.0699,-0.0451 -0.0889,-0.0821 -0.0423,-0.0821 0.0466,0 0.14182,0.0369 0.21167,0.0821 0.0699,0.0451 0.0889,0.0821 0.0423,0.0821 -0.0466,0 -0.14182,-0.0369 -0.21167,-0.0821 z m 5.334,-0.0847 c 0.0699,-0.0451 0.1651,-0.0821 0.21167,-0.0821 0.0466,0 0.0275,0.0369 -0.0423,0.0821 -0.0699,0.0451 -0.1651,0.0821 -0.21167,0.0821 -0.0466,0 -0.0275,-0.0369 0.0423,-0.0821 z m -9.27904,-0.27517 -0.16129,-0.1905 0.1905,0.16129 c 0.17902,0.15157 0.22904,0.21971 0.16129,0.21971 -0.0161,0 -0.10179,-0.0857 -0.1905,-0.1905 z m 3.30506,0.0588 c -0.15497,-0.12415 -0.15226,-0.12591 0.0473,-0.0309 0.25916,0.12343 0.3072,0.16253 0.19962,0.16253 -0.0454,0 -0.15655,-0.0593 -0.24694,-0.13167 z m 9.82632,-0.0377 c 0.0843,-0.0931 0.17229,-0.16933 0.19558,-0.16933 0.0233,0 -0.0266,0.0762 -0.11092,0.16933 -0.0843,0.0931 -0.17229,0.16933 -0.19557,0.16933 -0.0233,0 0.0266,-0.0762 0.11091,-0.16933 z m -3.00567,-0.12107 c 0,-0.0233 0.0762,-0.0831 0.16933,-0.13296 0.0931,-0.0498 0.16934,-0.0716 0.16934,-0.0483 0,0.0233 -0.0762,0.0831 -0.16934,0.13296 -0.0931,0.0498 -0.16933,0.0716 -0.16933,0.0483 z m -7.41332,-0.17996 c -0.15782,-0.12644 -0.15678,-0.12801 0.0262,-0.0394 0.10478,0.0508 0.1905,0.11003 0.1905,0.13167 0,0.0648 -0.0439,0.0461 -0.21665,-0.0923 z m -3.18081,-0.10103 c -0.10532,-0.13428 -0.10232,-0.13728 0.032,-0.032 0.14104,0.1106 0.18589,0.18013 0.1162,0.18013 -0.0176,0 -0.0842,-0.0667 -0.14816,-0.14817 z m 2.794,-0.1693 c -0.10532,-0.13429 -0.10232,-0.13728 0.032,-0.032 0.14104,0.11061 0.18589,0.18014 0.1162,0.18014 -0.0176,0 -0.0842,-0.0667 -0.14816,-0.14817 z m 8.47746,0.0315 c 0,-0.0176 0.0667,-0.0842 0.14817,-0.14816 0.13429,-0.10532 0.13728,-0.10232 0.032,0.032 -0.11061,0.14104 -0.18014,0.18589 -0.18014,0.1162 z m 3.09034,-0.22203 c 0.0843,-0.0931 0.17229,-0.16933 0.19557,-0.16933 0.0233,0 -0.0266,0.0762 -0.11091,0.16933 -0.0843,0.0931 -0.17229,0.16933 -0.19557,0.16933 -0.0233,0 0.0266,-0.0762 0.11091,-0.16933 z m -14.74005,-0.1059 -0.16129,-0.1905 0.1905,0.16129 c 0.17903,0.15157 0.22905,0.21971 0.16129,0.21971 -0.0161,0 -0.10179,-0.0857 -0.1905,-0.1905 z m 2.794,0 -0.16129,-0.1905 0.1905,0.16129 c 0.17903,0.15157 0.22905,0.21971 0.16129,0.21971 -0.0161,0 -0.10179,-0.0857 -0.1905,-0.1905 z m 9.44838,-0.1905 c 0.15797,-0.16299 0.30627,-0.29634 0.32955,-0.29634 0.0233,0 -0.0869,0.13335 -0.24488,0.29634 -0.15797,0.16298 -0.30627,0.29633 -0.32955,0.29633 -0.0233,0 0.0869,-0.13335 0.24488,-0.29633 z m 2.83729,-0.159 c 0.08,-0.12215 0.16153,-0.22209 0.18109,-0.22209 0.0613,0 -0.13588,0.3263 -0.23362,0.38671 -0.0511,0.0316 -0.0275,-0.0425 0.0525,-0.16462 z m -12.87562,-0.15859 -0.24867,-0.27517 0.27517,0.24867 c 0.15134,0.13677 0.27516,0.2606 0.27516,0.27517 0,0.0654 -0.0699,0.008 -0.30166,-0.24867 z m 10.46166,-0.09 c 0,-0.0146 0.12383,-0.13839 0.27517,-0.27516 l 0.27517,-0.24868 -0.24868,0.27517 c -0.2318,0.25649 -0.30166,0.31408 -0.30166,0.24867 z m 2.76821,-0.3533 c 0.0774,-0.1624 0.15584,-0.28024 0.17421,-0.26187 0.0387,0.0387 -0.21829,0.55714 -0.27622,0.55714 -0.0213,0 0.0246,-0.13287 0.10201,-0.29527 z m -13.74058,-0.14923 -0.16129,-0.1905 0.1905,0.16129 c 0.17902,0.15157 0.22904,0.21971 0.16129,0.21971 -0.0161,0 -0.10179,-0.0857 -0.1905,-0.1905 z m -2.5215,-0.2784 c -0.0817,-0.21291 -0.0576,-0.26785 0.0422,-0.0962 0.0494,0.085 0.072,0.17235 0.0502,0.19415 -0.0218,0.0218 -0.0634,-0.0223 -0.0924,-0.0979 z m 2.25676,-0.0602 c -0.12693,-0.16412 -0.20678,-0.3175 -0.16529,-0.3175 0.0207,0 0.10001,0.0952 0.17629,0.21167 0.14273,0.21784 0.13478,0.29433 -0.011,0.10583 z m -2.55687,-0.87479 c 0.004,-0.0986 0.0241,-0.11869 0.0511,-0.0512 0.0245,0.0611 0.0215,0.13415 -0.007,0.16228 -0.0281,0.0281 -0.0481,-0.0219 -0.0445,-0.11113 z m 15.12286,-0.16121 c 0.0774,-0.1624 0.15584,-0.28024 0.17421,-0.26187 0.0387,0.0387 -0.21829,0.55714 -0.27622,0.55714 -0.0213,0 0.0246,-0.13287 0.10201,-0.29527 z m 1.98649,0.0412 c 0,-0.11642 0.0192,-0.16404 0.0427,-0.10583 0.0235,0.0582 0.0235,0.15346 0,0.21166 -0.0235,0.0582 -0.0427,0.0106 -0.0427,-0.10583 z m -17.18733,-0.2541 c 0,-0.11642 0.0192,-0.16404 0.0427,-0.10583 0.0235,0.0582 0.0235,0.15346 0,0.21166 -0.0235,0.0582 -0.0427,0.0106 -0.0427,-0.10583 z m 17.27514,-0.21169 c 0.002,-0.1397 0.0207,-0.1866 0.0422,-0.10422 0.0215,0.0824 0.0201,0.19668 -0.003,0.254 -0.0232,0.0573 -0.0408,-0.0101 -0.039,-0.14978 z m -15.45772,-0.003 c -0.0817,-0.21291 -0.0576,-0.26785 0.0422,-0.0962 0.0494,0.085 0.072,0.17235 0.0502,0.19415 -0.0218,0.0218 -0.0634,-0.0223 -0.0924,-0.0979 z m -1.87616,-4.35713 c 0,-2.35162 0.0109,-3.31364 0.0241,-2.13783 0.0133,1.17581 0.0133,3.09986 0,4.27566 -0.0133,1.17581 -0.0241,0.21379 -0.0241,-2.13783 z m 17.40201,-1.03306 c -0.0233,-2.73348 -0.0134,-4.94107 0.0219,-4.90574 0.0353,0.0353 0.0543,2.27181 0.0423,4.96996 l -0.0219,4.90574 z m -15.82595,4.45497 c 0.004,-0.0986 0.0241,-0.11869 0.0512,-0.0512 0.0245,0.0611 0.0214,0.13415 -0.007,0.16228 -0.0281,0.0281 -0.0481,-0.0219 -0.0445,-0.11113 z m 14.23068,-0.12016 c 0,-0.11642 0.0192,-0.16404 0.0427,-0.10583 0.0235,0.0582 0.0235,0.15346 0,0.21166 -0.0235,0.0582 -0.0427,0.0106 -0.0427,-0.10583 z m -14.30867,-0.2541 c 0,-0.11642 0.0192,-0.16404 0.0427,-0.10583 0.0235,0.0582 0.0235,0.15346 0,0.21166 -0.0235,0.0582 -0.0427,0.0106 -0.0427,-0.10583 z m 14.39334,-0.16889 c 0,-0.11642 0.0192,-0.16404 0.0427,-0.10584 0.0235,0.0582 0.0235,0.15346 0,0.21167 -0.0235,0.0582 -0.0427,0.0106 -0.0427,-0.10583 z m -14.47173,-0.33873 c 0,-0.16298 0.0174,-0.22966 0.0387,-0.14817 0.0213,0.0815 0.0213,0.21485 0,0.29634 -0.0213,0.0815 -0.0387,0.0148 -0.0387,-0.14817 z m 14.56608,-0.33873 c 0,-0.20955 0.0165,-0.29527 0.0367,-0.1905 0.0202,0.10478 0.0202,0.27623 0,0.381 -0.0202,0.10478 -0.0367,0.019 -0.0367,-0.1905 z m -14.64502,-0.59265 c 0,-0.25612 0.0159,-0.36089 0.0353,-0.23284 0.0194,0.12806 0.0194,0.33761 0,0.46567 -0.0194,0.12806 -0.0353,0.0233 -0.0353,-0.23283 z m -2.41569,-0.2307 c 0.15218,-0.0188 0.38078,-0.0185 0.508,8.7e-4 0.12723,0.0193 0.003,0.0347 -0.27668,0.0343 -0.2794,-4.8e-4 -0.38349,-0.0163 -0.23132,-0.0351 z m 0.81937,-2.5633 c 0,-1.46685 0.0115,-2.06693 0.0256,-1.3335 0.0141,0.73342 0.0141,1.93357 0,2.667 -0.0141,0.73342 -0.0256,0.13335 -0.0256,-1.3335 z m 17.93184,-0.99484 0.0202,-3.6195 0.023,3.58228 0.023,3.58228 0.96489,-0.0263 c 0.53069,-0.0144 0.94713,0.002 0.92541,0.0372 -0.0217,0.0349 -0.47537,0.0635 -1.00814,0.0635 h -0.96867 z m -1.68934,3.15384 c 6.4e-4,-0.23284 0.0171,-0.31804 0.0365,-0.18934 0.0195,0.1287 0.0189,0.3192 -0.001,0.42333 -0.0201,0.10414 -0.036,-0.001 -0.0354,-0.23399 z m 3.7078,0.0776 c 0.004,-0.0986 0.0241,-0.1187 0.0512,-0.0511 0.0245,0.0611 0.0214,0.13414 -0.007,0.16227 -0.0281,0.0281 -0.0481,-0.0219 -0.0445,-0.11112 z m -22.09131,-0.37407 c 0,-0.11641 0.0192,-0.16404 0.0427,-0.10583 0.0235,0.0582 0.0235,0.15346 0,0.21167 -0.0235,0.0582 -0.0427,0.0106 -0.0427,-0.10584 z m 3.81313,-0.0423 c 0.002,-0.1397 0.0207,-0.1866 0.0422,-0.10422 0.0215,0.0824 0.0201,0.19668 -0.003,0.254 -0.0232,0.0573 -0.0408,-0.0101 -0.039,-0.14978 z m 18.36953,0.0423 c 0,-0.11641 0.0192,-0.16404 0.0427,-0.10583 0.0235,0.0582 0.0235,0.15346 0,0.21167 -0.0235,0.0582 -0.0427,0.0106 -0.0427,-0.10584 z m -22.25935,-0.55034 c 9.4e-4,-0.18627 0.0183,-0.2525 0.0385,-0.14718 0.0203,0.10532 0.0195,0.25772 -0.002,0.33867 -0.0212,0.081 -0.0378,-0.005 -0.0368,-0.19149 z m 18.36469,0.127 c 0,-0.11642 0.0192,-0.16404 0.0427,-0.10583 0.0235,0.0582 0.0235,0.15346 0,0.21166 -0.0235,0.0582 -0.0427,0.0106 -0.0427,-0.10583 z m 3.98731,-0.21167 c 9.4e-4,-0.18626 0.0183,-0.25249 0.0385,-0.14718 0.0202,0.10532 0.0195,0.25772 -0.002,0.33867 -0.0212,0.081 -0.0378,-0.005 -0.0368,-0.19149 z m -18.38733,0.0776 c 0.004,-0.0986 0.0241,-0.11869 0.0511,-0.0511 0.0245,0.0611 0.0215,0.13415 -0.007,0.16228 -0.0281,0.0281 -0.0481,-0.0219 -0.0445,-0.11113 z m 14.30866,-0.254 c 0.004,-0.0986 0.0241,-0.11869 0.0512,-0.0512 0.0245,0.0611 0.0215,0.13415 -0.007,0.16228 -0.0281,0.0281 -0.0481,-0.0219 -0.0445,-0.11113 z m -18.34391,-1.89802 c 0,-0.90805 0.0125,-1.27952 0.0277,-0.8255 0.0152,0.45403 0.0152,1.19698 0,1.651 -0.0152,0.45403 -0.0277,0.0825 -0.0277,-0.8255 z m 22.51127,1.10065 c 0,-0.25612 0.0159,-0.36089 0.0353,-0.23284 0.0194,0.12806 0.0194,0.33761 0,0.46567 -0.0194,0.12806 -0.0353,0.0233 -0.0353,-0.23283 z m -4.58362,-0.38462 c -0.14186,-0.31134 -0.11479,-0.37776 0.0386,-0.0947 0.0716,0.13217 0.11439,0.25616 0.095,0.27552 -0.0194,0.0194 -0.0795,-0.062 -0.13363,-0.1808 z m -13.39109,-0.0707 c 0,-0.0909 0.25192,-0.56024 0.30069,-0.56024 0.0233,0 -0.0206,0.12382 -0.0976,0.27516 -0.15716,0.30903 -0.20308,0.37348 -0.20308,0.28508 z m 13.081,-0.56024 c -0.0722,-0.1397 -0.11229,-0.254 -0.089,-0.254 0.0233,0 0.10144,0.1143 0.17368,0.254 0.0722,0.1397 0.1123,0.254 0.089,0.254 -0.0233,0 -0.10144,-0.1143 -0.17369,-0.254 z m -12.319,-0.79395 c 0,-0.0176 0.0667,-0.0843 0.14817,-0.14817 0.13429,-0.10531 0.13728,-0.10232 0.032,0.032 -0.11061,0.14103 -0.18014,0.18588 -0.18014,0.1162 z m 11.58854,-0.28615 c -0.10532,-0.13429 -0.10232,-0.13728 0.032,-0.032 0.14104,0.11061 0.18589,0.18013 0.1162,0.18013 -0.0176,0 -0.0842,-0.0667 -0.14816,-0.14816 z m -10.7842,-0.61384 c 0.27648,-0.2794 0.52175,-0.508 0.54503,-0.508 0.0233,0 -0.18388,0.2286 -0.46037,0.508 -0.27648,0.2794 -0.52175,0.508 -0.54503,0.508 -0.0233,0 0.18388,-0.2286 0.46037,-0.508 z m 16.40721,0.0423 c 6.4e-4,-0.23284 0.0171,-0.31804 0.0365,-0.18934 0.0195,0.1287 0.0189,0.3192 -10e-4,0.42333 -0.0201,0.10414 -0.036,-0.001 -0.0354,-0.23399 z m -6.08592,0.0212 -0.16129,-0.1905 0.1905,0.16129 c 0.17902,0.15157 0.22904,0.21971 0.16129,0.21971 -0.0161,0 -0.10179,-0.0857 -0.1905,-0.1905 z m -16.35361,-0.69821 c 9.4e-4,-0.18626 0.0183,-0.25249 0.0385,-0.14718 0.0203,0.10532 0.0195,0.25772 -0.002,0.33867 -0.0212,0.081 -0.0378,-0.005 -0.0368,-0.19149 z m 15.71585,0.14817 c -0.10531,-0.13429 -0.10232,-0.13728 0.032,-0.032 0.14103,0.11061 0.18588,0.18014 0.1162,0.18014 -0.0176,0 -0.0843,-0.0667 -0.14817,-0.14817 z m -9.04853,-0.0532 c 0,-0.0176 0.0667,-0.0843 0.14816,-0.14817 0.13429,-0.10531 0.13728,-0.10232 0.032,0.032 -0.11061,0.14103 -0.18013,0.18588 -0.18013,0.1162 z m 15.68297,-0.39137 c 0,-0.16298 0.0174,-0.22966 0.0387,-0.14817 0.0213,0.0815 0.0213,0.21485 0,0.29634 -0.0213,0.0815 -0.0387,0.0148 -0.0387,-0.14817 z m -22.2736,-0.33867 c 0,-0.11641 0.0192,-0.16404 0.0427,-0.10583 0.0235,0.0582 0.0235,0.15346 0,0.21167 -0.0235,0.0582 -0.0427,0.0106 -0.0427,-0.10584 z m 14.50198,0.0377 c -0.15782,-0.12644 -0.15679,-0.12801 0.0262,-0.0394 0.10477,0.0508 0.1905,0.11003 0.1905,0.13167 0,0.0648 -0.0439,0.0461 -0.21665,-0.0923 z m -6.89535,0.005 c 0,-0.0579 0.5184,-0.31495 0.55714,-0.27622 0.0184,0.0184 -0.0995,0.0968 -0.26187,0.17421 -0.1624,0.0774 -0.29527,0.12335 -0.29527,0.10201 z m 6.43466,-0.21244 c -0.0699,-0.0451 -0.0889,-0.0821 -0.0423,-0.0821 0.0466,0 0.14182,0.0369 0.21167,0.0821 0.0699,0.0451 0.0889,0.0821 0.0423,0.0821 -0.0466,0 -0.14182,-0.0369 -0.21167,-0.0821 z m 8.13469,-0.0494 c 0.004,-0.0986 0.0241,-0.11869 0.0512,-0.0511 0.0245,0.0611 0.0214,0.13414 -0.007,0.16228 -0.0281,0.0281 -0.0482,-0.0219 -0.0445,-0.11113 z m -0.11411,-0.36668 c -0.0368,-0.14083 -0.0258,-0.17388 0.037,-0.11105 0.0492,0.0492 0.0728,0.13943 0.0524,0.20051 -0.0211,0.0634 -0.0595,0.025 -0.0894,-0.0895 z m -21.88428,-0.0914 c 0.0281,-0.10352 0.22107,-0.12783 1.04361,-0.1315 l 1.00909,-0.005 -0.97048,0.0286 c -0.63555,0.0187 -0.99573,0.0641 -1.04362,0.1315 -0.0524,0.0737 -0.0633,0.0668 -0.0386,-0.0241 z m 9.1065,0.0268 c 0.0611,-0.0245 0.13414,-0.0215 0.16227,0.007 0.0281,0.0281 -0.0219,0.0482 -0.11112,0.0445 -0.0986,-0.004 -0.1187,-0.0241 -0.0512,-0.0511 z m 3.47133,0 c 0.0611,-0.0245 0.13414,-0.0215 0.16228,0.007 0.0281,0.0281 -0.0219,0.0482 -0.11113,0.0445 -0.0986,-0.004 -0.11869,-0.0241 -0.0512,-0.0511 z m -3.13796,-0.0831 c 0.0582,-0.0235 0.15346,-0.0235 0.21167,0 0.0582,0.0235 0.0106,0.0427 -0.10584,0.0427 -0.11641,0 -0.16404,-0.0192 -0.10583,-0.0427 z m 2.70933,0 c 0.0582,-0.0235 0.15346,-0.0235 0.21167,0 0.0582,0.0235 0.0106,0.0427 -0.10583,0.0427 -0.11642,0 -0.16404,-0.0192 -0.10584,-0.0427 z m -2.11568,-0.0887 c 0.10532,-0.0203 0.25772,-0.0195 0.33867,0.002 0.081,0.0212 -0.005,0.0378 -0.19149,0.0368 -0.18626,-9.4e-4 -0.25249,-0.0183 -0.14718,-0.0385 z m 1.43934,0 c 0.10532,-0.0203 0.25772,-0.0195 0.33866,0.002 0.081,0.0212 -0.005,0.0378 -0.19148,0.0368 -0.18627,-9.4e-4 -0.2525,-0.0183 -0.14718,-0.0385 z m 8.84668,-0.002 c 0.17462,-0.0183 0.46037,-0.0183 0.635,0 0.17462,0.0183 0.0317,0.0332 -0.3175,0.0332 -0.34925,0 -0.49213,-0.0149 -0.3175,-0.0332 z m -17.9813,-0.29795 c 0.10713,-0.1366 0.33843,-0.14661 2.96333,-0.12818 l 2.84713,0.02 -2.82905,0.0235 c -2.08705,0.0173 -2.86427,0.051 -2.96333,0.12818 -0.11869,0.0925 -0.12079,0.0875 -0.0181,-0.0435 z m 9.2183,-0.0349 c 0.0582,-0.0235 0.15346,-0.0235 0.21166,0 0.0582,0.0235 0.0106,0.0427 -0.10583,0.0427 -0.11642,0 -0.16404,-0.0192 -0.10583,-0.0427 z m 2.24944,-0.007 c 1.06258,-0.0134 2.77708,-0.0134 3.81,4e-5 1.03293,0.0135 0.16356,0.0245 -1.93194,0.0244 -2.0955,-2e-5 -2.94063,-0.011 -1.87806,-0.0245 z"
         id="path1"
         sodipodi:nodetypes="sssssscscsssssscsssssssscscscsscsssssscsccccscccssssssssccsccsssssssssssssscssssssccccccccccssssccsccccscccscsccscsccscscscssscssccssssssssssccscccssccccsccscssssssssscsssscsssssssssssssccsscsscssssssscsssssssssscscccccsssssssssssscscccsssssscsscsccccscccsssssssssssssssssssssssscccccssssccccccsccccccccscccsssscscccsssscccccsssscscccccccccscccssssssssssssssscsssssssssscssccsccssssscccccscssscccccccsccsscssssssssssccsccsssscscsccsccccsccccccssccccccccccccssssssssccccccccccssssssccsssssssccccc" /></g></g></svg>
